<?xml version="1.0" encoding="UTF-8" standalone="no"?>
<svg width="512" height="512" viewBox="0 0 512 512" fill="none" xmlns="http://www.w3.org/2000/svg">
  <!-- Background -->
  <rect width="512" height="512" rx="100" fill="#10b981" />
  
  <!-- Plate/Dish Circle -->
  <circle cx="256" cy="256" r="160" fill="white" />
  
  <!-- Fork icon on the left -->
  <path d="M186 156C186 156 180 192 180 208C180 224 186 240 186 240L160 240C160 240 154 224 154 208C154 192 160 156 160 156M173 156L173 240" stroke="#333" stroke-width="16" stroke-linecap="round" stroke-linejoin="round" />
  
  <!-- Knife icon on the right -->
  <path d="M326 156C342 156 352 180 352 208C352 236 326 240 326 240L300 240C300 240 326 220 326 208C326 196 316 180 316 156" stroke="#333" stroke-width="16" stroke-linecap="round" stroke-linejoin="round" />
  
  <!-- Apple shape -->
  <path d="M256 190C270 190 300 200 300 240C300 280 270 320 256 320C242 320 212 280 212 240C212 200 242 190 256 190Z" fill="#FF6B6B" />
  
  <!-- Apple leaf -->
  <path d="M256 190C270 184 290 170 280 150" stroke="#2D803D" stroke-width="12" stroke-linecap="round" />
  
  <!-- Calorie count -->
  <circle cx="380" cy="380" r="60" fill="#2563eb" />
  <text x="380" y="395" font-family="Arial, sans-serif" font-size="36" font-weight="bold" text-anchor="middle" fill="white">kcal</text>
</svg>